<?xml version="1.0" encoding="utf-8"?>
<!-- Generator: Adobe Illustrator 16.0.0, SVG Export Plug-In . SVG Version: 6.00 Build 0)  -->
<!DOCTYPE svg PUBLIC "-//W3C//DTD SVG 1.1//EN" "http://www.w3.org/Graphics/SVG/1.1/DTD/svg11.dtd">
<svg version="1.1" id="Capa_1" xmlns="http://www.w3.org/2000/svg" xmlns:xlink="http://www.w3.org/1999/xlink" x="0px" y="0px"
	 width="481px" height="446px" viewBox="0 0 481 446" enable-background="new 0 0 481 446" xml:space="preserve">
<path fill="#BC3535" d="M-588.163-881.227c9.368,6.202,16.194,8.804,19.855,10.011c-7.146-0.447-14.653-3.05-22.463-7.771
	c0.536-1.328,0.732-1.788,1.176-3.187 M-633.307-850.075c6.364-2.885,12.304-7.701,17.45-14.348
	c12.809-16.565,17.401-39.947,10.236-52.131c-1.695-2.877-4.522-5.95-9.182-7.473C-584.869-925-594.988-861.76-633.307-850.075
	 M-654.789-851.158c-5.261-1.438-16.566-6.313-15.529-20.853c0.781-10.957,10.846-22.211,29.127-22.868
	c0.602-0.021,1.206-0.033,1.804-0.033c15.817,0,28.654,7.417,31.855,9.438c-2.222,6.871-5.698,13.722-10.233,19.574
	C-632.258-847.163-646.569-848.917-654.789-851.158 M-668.24-885.803c6.169-9.556,17.924-14.242,32.625-14.242h0.061
	c9.685,0.308,19.363,3.482,29.55,9.084c0,0-0.378,1.59-0.799,3.09c-4.307-2.663-17.815-9.998-34.472-9.417
	c-17.948,0.653-28.071,10.952-30.833,21.798C-671.609-879.069-670.316-882.59-668.24-885.803 M-541.69-895.557
	c-3.011-1.892-6.548-1.524-8.155,1.549c-1.115,2.129-0.771,5.234,2.283,7.227c1.041,0.667,2.234,1.039,3.337,1.597
	c1.43,0.715,1.884,1.976,0.957,3.552c-0.644,1.003-6.212,9.677-17.567,8.46c-10.834-1.909-9.139-13.997-7.351-18.078l18.44-44.287
	h11.67l0.931-2.029h-11.759l4.871-11.7l-7.615,0.053c0,0-21.898,52.688-23.246,55.951c-1.087,2.618-3.145,9.623,0.768,15.777
	c-7.749-5.202-4.567-14.525-3.95-16.209l22.936-55.475l-2.023-0.039l-4.812,11.642h-9.291l-0.875,2.029h9.329l-17.198,41.593
	c-0.041,0.094-2.643,6.788,0.027,12.955c-1.937-1.229-3.938-2.545-6.027-3.928c-0.74-0.491-1.502-0.994-2.263-1.493
	c0.727-2.72,1.189-5.434,1.425-8.088c2.351-20.429-8.815-37.346-31.155-32.667c-0.241,0.038-7.503,1.415-17.111,6.869l-0.612,0.02
	l12.518-23.549c27.666,7.943,43.524-3.792,47.757-7.263c0.021-0.006-1.382-1.344-2.015-2.021
	c-14.681,8.035-35.275,3.581-41.519-0.043l-2.393-1.271l-21.145,39.663l7.377-0.372c0,0,4.779-5.743,12.621-7.417
	c6.455-1.344,11.85,2.143,14.832,7.215c2.853,4.859,3.611,11.869,2.56,19.52c-10.276-5.328-21.196-8.363-30.211-8.372h-0.064
	c-15.855,0-29.191,5.826-35.647,16.563c-5.706,9.493-5.506,21.537,1.072,30.728c16.163,22.61,62.049,15.468,78.12-19.567
	c8.965,5.354,17.592,8.068,25.781,8.068c4.797,0,9.597-1.012,14.137-2.882c7.592-2.929,11.545-9.164,11.545-9.164
	S-533.547-890.424-541.69-895.557"/>
<path fill="#B74949" d="M275.781,182.703c19.976,13.228,34.534,18.776,42.347,21.354c-15.243-0.957-31.255-6.506-47.908-16.573
	c1.142-2.833,1.56-3.815,2.509-6.798 M179.502,249.141c13.571-6.151,26.24-16.426,37.216-30.598
	c27.318-35.328,37.11-85.197,21.83-111.183c-3.618-6.136-9.642-12.688-19.581-15.937
	C282.804,89.348,261.225,224.218,179.502,249.141 M133.688,246.83c-11.22-3.067-35.33-13.463-33.12-44.47
	c1.667-23.369,23.133-47.373,62.12-48.772c1.284-0.043,2.573-0.071,3.848-0.071c33.735,0,61.112,15.819,67.941,20.129
	c-4.74,14.653-12.156,29.268-21.828,41.746C181.739,255.352,151.217,251.611,133.688,246.83 M105.001,172.945
	c13.156-20.38,38.227-30.373,69.579-30.373h0.129c20.654,0.656,41.293,7.426,63.022,19.372c0,0-0.805,3.393-1.705,6.593
	c-9.184-5.68-37.995-21.323-73.517-20.085c-38.278,1.392-59.868,23.357-65.758,46.49
	C97.814,187.307,100.572,179.797,105.001,172.945 M374.893,152.143c-6.421-4.034-13.967-3.25-17.392,3.304
	c-2.384,4.542-1.649,11.161,4.868,15.411c2.217,1.424,4.768,2.219,7.117,3.406c3.047,1.527,4.016,4.215,2.043,7.578
	c-1.377,2.142-13.25,20.638-37.471,18.044c-23.105-4.071-19.488-29.852-15.673-38.558l39.325-94.448h24.888l1.987-4.329H359.51
	L369.896,37.6l-16.242,0.112c0,0-46.702,112.366-49.578,119.328c-2.316,5.584-6.706,20.52,1.637,33.646
	c-16.524-11.093-9.738-30.978-8.423-34.569l48.915-118.313l-4.315-0.081l-10.261,24.827h-19.816l-1.866,4.329h19.896l-36.679,88.705
	c-0.087,0.2-5.634,14.474,0.061,27.631c-4.132-2.623-8.398-5.43-12.854-8.377c-1.58-1.049-3.205-2.124-4.825-3.187
	c1.548-5.8,2.53-11.588,3.035-17.249c5.013-43.568-18.799-79.648-66.443-69.669c-0.515,0.082-16.003,3.019-36.493,14.649
	l-1.307,0.043l26.697-50.225c59.003,16.942,92.827-8.085,101.851-15.489c0.044-0.012-2.945-2.866-4.293-4.309
	c-31.311,17.134-75.235,7.637-88.549-0.093l-5.102-2.71l-45.095,84.587l15.734-0.792c0,0,10.193-12.249,26.917-15.818
	c13.764-2.866,25.271,4.567,31.632,15.386c6.083,10.363,7.701,25.313,5.458,41.632c-21.916-11.364-45.203-17.836-64.43-17.855
	h-0.138c-33.816,0-62.256,12.424-76.025,35.325c-12.168,20.245-11.742,45.932,2.285,65.535
	c34.472,48.219,132.336,32.985,166.604-41.733c19.12,11.419,37.519,17.208,54.985,17.208c10.231,0,20.466-2.159,30.148-6.148
	c16.194-6.245,24.622-19.541,24.622-19.541S392.263,163.089,374.893,152.143"/>
<g>
	<path fill="#1D1D1B" d="M68.396,369.202c-0.152-0.943-1.325-2.354-3.359-2.354c-3.532,0-8.617,2.508-12.771,2.508
		c-14.1,0-24.589-13.54-24.589-29.054c0-15.583,10.183-29.122,24.203-29.122c3.598,0,7.913,2.111,11.358,2.111
		c2.184,0,3.594-1.024,3.744-1.888c0-0.155,1.114-0.155,1.114,0v16.848c0,0.15-1.114,0.15-1.114,0
		c0-7.768-7.747-15.833-15.103-15.833c-3.361,0-6.654,0.715-9.161,2.906c-3.836,3.685-5.958,11.586-5.958,24.978
		c0,13.392,2.123,21.228,5.958,24.91c2.506,2.26,6.188,2.963,9.547,2.963c9.084,0,16.13-7.353,16.13-17.616
		c0-0.147,1.097-0.147,1.097,0v18.644C69.493,369.273,68.49,369.273,68.396,369.202z"/>
	<path fill="#1D1D1B" d="M125.094,368.024c-0.15,0-0.15-1.246,0-1.246h6.506c0.308,0,0.465-0.081,0.465-0.319v-52.396
		c0-0.232-0.157-0.311-0.465-0.311h-6.506c-0.15,0-0.15-1.252,0-1.252h22.639c0.152,0,0.152,1.252,0,1.252h-6.661
		c-0.314,0-0.465,0.079-0.465,0.311v52.396c0,0.238,0.15,0.319,0.465,0.319h6.661c0.152,0,0.152,1.246,0,1.246H125.094z"/>
	<path fill="#1D1D1B" d="M246.646,313.753c-0.313,0-0.476,0.079-0.476,0.311v54.985c0,0.225-1.012,0.307-1.253,0l-33.898-54.428
		v51.839c0,0.238,0,0.319,0.306,0.319h6.658c0.075,0,0.075,1.246,0,1.246h-15.277c-0.15,0-0.15-1.246,0-1.246h6.583
		c0.306,0,0.388-0.081,0.388-0.319v-52.396c0-0.232-0.082-0.311-0.388-0.311h-6.583c-0.15,0-0.15-1.252,0-1.252h16.125
		c0.566,0,0.954,0.321,1.731,1.415l24.426,39.312v-39.165c0-0.232-0.152-0.311-0.454-0.311h-6.496c-0.244,0-0.244-1.252,0-1.252
		h15.18c0.084,0,0.084,1.252,0,1.252H246.646z"/>
	<path fill="#1D1D1B" d="M348.77,369.202c-0.164-0.943-1.346-2.354-3.389-2.354c-3.511,0-8.599,2.508-12.742,2.508
		c-14.104,0-24.598-13.54-24.598-29.054c0-15.583,10.179-29.122,24.206-29.122c3.589,0,7.906,2.111,11.347,2.111
		c2.195,0,3.608-1.024,3.763-1.888c0-0.155,1.099-0.155,1.099,0v16.848c0,0.15-1.099,0.15-1.099,0
		c0-7.768-7.749-15.833-15.109-15.833c-3.368,0-6.675,0.715-9.164,2.906c-3.852,3.685-5.965,11.586-5.965,24.978
		c0,13.392,2.113,21.228,5.965,24.91c2.489,2.26,6.185,2.963,9.556,2.963c9.082,0,16.131-7.353,16.131-17.616
		c0-0.147,1.086-0.147,1.086,0v18.644C349.855,369.273,348.84,369.273,348.77,369.202z"/>
	<path fill="#1D1D1B" d="M430.45,369.355c-13.32,0-24.198-12.996-24.198-29.054c0-15.583,10.171-29.122,24.198-29.122
		c13.463,0,24.265,12.993,24.265,29.122C454.715,356.36,443.913,369.355,430.45,369.355z M439.685,315.324
		c-2.507-2.191-5.557-2.906-9.234-2.906c-3.689,0-6.652,0.715-9.097,2.906c-3.83,3.685-5.938,11.586-5.938,24.978
		c0,15.346,2.107,21.228,5.938,24.91c2.444,2.26,5.407,2.963,9.097,2.963c3.678,0,6.728-0.703,9.234-2.963
		c3.84-3.683,5.875-9.564,5.875-24.91C445.56,326.91,443.524,319.009,439.685,315.324z"/>
</g>
<g>
	<path fill="#1D1D1B" d="M33.569,419.132v-17.538h-6.246v-2.191h14.973v2.191h-6.274v17.538H33.569z"/>
	<path fill="#1D1D1B" d="M78.369,419.132v-19.729h12.942v2.191H80.829v6.354h10.268v2.188H80.829v6.804h10.483v2.191H78.369z"/>
	<path fill="#1D1D1B" d="M142.009,419.132l-11.508-15.74v15.74h-2.462v-19.729h2.52l11.366,15.412v-15.412h2.444v19.729H142.009z"/>
	<path fill="#1D1D1B" d="M181.815,419.132v-19.729h12.93v2.191h-10.467v6.354h10.253v2.188h-10.253v6.804h10.467v2.191H181.815z"/>
	<path fill="#1D1D1B" d="M231.484,419.132v-19.729h6.744c6.122,0,10.118,4.286,10.118,9.875c0,5.62-3.996,9.854-10.118,9.854
		H231.484z M245.812,409.278c0-4.251-2.702-7.684-7.583-7.684h-4.296v15.346h4.296C243.022,416.94,245.812,413.508,245.812,409.278z
		"/>
	<path fill="#1D1D1B" d="M284.219,409.278c0-5.828,3.934-10.211,9.787-10.211c5.837,0,9.802,4.383,9.802,10.211
		c0,5.818-3.965,10.206-9.802,10.206C288.152,419.484,284.219,415.097,284.219,409.278z M301.263,409.278
		c0-4.617-2.84-8.016-7.257-8.016c-4.421,0-7.239,3.399-7.239,8.016c0,4.593,2.818,8.015,7.239,8.015
		C298.423,417.293,301.263,413.871,301.263,409.278z"/>
	<path fill="#1D1D1B" d="M351.903,419.132l-5.034-7.846h-3.927v7.846h-2.458v-19.729h7.93c3.607,0,6.172,2.301,6.172,5.942
		c0,3.546-2.419,5.507-5.109,5.743l5.327,8.044H351.903z M352.059,405.345c0-2.221-1.6-3.75-3.943-3.75h-5.173v7.531h5.173
		C350.459,409.125,352.059,407.562,352.059,405.345z"/>
	<path fill="#1D1D1B" d="M391.297,419.132v-19.729h12.931v2.191H393.76v6.354h10.256v2.188H393.76v6.804h10.468v2.191H391.297z"/>
	<path fill="#1D1D1B" d="M439.786,416.344l1.438-1.857c1.31,1.455,3.435,2.806,6.214,2.806c3.517,0,4.653-1.899,4.653-3.406
		c0-5.081-11.689-2.264-11.689-9.307c0-3.253,2.895-5.477,6.783-5.477c3.006,0,5.348,0.999,6.998,2.755l-1.474,1.801
		c-1.478-1.636-3.545-2.361-5.714-2.361c-2.371,0-4.052,1.264-4.052,3.134c0,4.434,11.697,1.884,11.697,9.264
		c0,2.869-1.96,5.788-7.288,5.788C443.93,419.484,441.411,418.19,439.786,416.344z"/>
</g>
</svg>
