<?xml version="1.0" encoding="utf-8"?>
<!-- Generator: Adobe Illustrator 16.0.0, SVG Export Plug-In . SVG Version: 6.00 Build 0)  -->
<!DOCTYPE svg PUBLIC "-//W3C//DTD SVG 1.1//EN" "http://www.w3.org/Graphics/SVG/1.1/DTD/svg11.dtd">
<svg version="1.1" id="Capa_1" xmlns="http://www.w3.org/2000/svg" xmlns:xlink="http://www.w3.org/1999/xlink" x="0px" y="0px"
	 width="450px" height="450px" viewBox="0 0 450 450" enable-background="new 0 0 450 450" xml:space="preserve">
<g>
	<g>
		<path fill="#B74949" d="M236.139,255.166c14.938,9.882,25.809,14.039,31.664,15.963c-11.4-0.72-23.371-4.866-35.817-12.386
			c0.845-2.118,1.16-2.857,1.874-5.081 M164.17,304.828c10.146-4.597,19.615-12.281,27.822-22.878
			c20.414-26.399,27.738-63.681,16.316-83.101c-2.697-4.592-7.203-9.493-14.629-11.916
			C241.383,185.385,225.266,286.202,164.17,304.828 M129.925,303.099c-8.391-2.293-26.396-10.062-24.747-33.244
			c1.235-17.467,17.282-35.412,46.426-36.457c0.974-0.035,1.938-0.045,2.877-0.045c25.216,0,45.686,11.821,50.781,15.049
			c-3.537,10.951-9.094,21.873-16.307,31.206C165.842,309.474,143.029,306.677,129.925,303.099 M108.486,247.872
			c9.832-15.229,28.578-22.703,52.01-22.703h0.095c15.438,0.49,30.869,5.541,47.113,14.474c0,0-0.609,2.544-1.272,4.932
			c-6.878-4.237-28.398-15.94-54.959-15.014c-28.612,1.042-44.751,17.462-49.152,34.754
			C103.116,258.604,105.178,252.998,108.486,247.872 M310.23,232.328c-4.797-3.027-10.441-2.438-13,2.464
			c-1.782,3.397-1.238,8.338,3.642,11.521c1.655,1.064,3.549,1.659,5.316,2.543c2.274,1.135,3.003,3.158,1.529,5.666
			c-1.034,1.599-9.907,15.433-28.018,13.484c-17.258-3.037-14.565-22.312-11.711-28.822l29.401-70.596h18.605l1.479-3.238H298.73
			l7.764-18.65l-12.141,0.085c0,0-34.914,83.99-37.062,89.196c-1.724,4.177-5.006,15.344,1.219,25.146
			c-12.34-8.294-7.278-23.147-6.285-25.831l36.553-88.437l-3.212-0.06l-7.681,18.55h-14.813l-1.394,3.238h14.874l-27.413,66.304
			c-0.07,0.15-4.217,10.816,0.039,20.659c-3.088-1.964-6.275-4.052-9.602-6.266c-1.175-0.784-2.408-1.588-3.607-2.388
			c1.153-4.337,1.889-8.658,2.277-12.885c3.722-32.565-14.059-59.54-49.672-52.08c-0.389,0.067-11.971,2.243-27.279,10.946
			l-0.977,0.045l19.954-37.551c44.105,12.66,69.392-6.046,76.131-11.576c0.034-0.005-2.199-2.144-3.197-3.218
			c-23.422,12.8-56.248,5.706-66.199-0.075l-3.807-2.023l-33.72,63.222l11.767-0.585c0,0,7.612-9.152,20.118-11.828
			c10.288-2.139,18.892,3.417,23.643,11.508c4.547,7.739,5.751,18.915,4.081,31.118c-16.382-8.49-33.788-13.342-48.162-13.344h-0.1
			c-25.281,0-46.537,9.291-56.831,26.402c-9.094,15.129-8.778,34.329,1.704,48.982c25.774,36.042,98.924,24.661,124.538-31.196
			c14.299,8.539,28.044,12.86,41.103,12.86c7.654,0,15.289-1.613,22.538-4.597c12.106-4.656,18.401-14.604,18.401-14.604
			S323.221,240.497,310.23,232.328"/>
	</g>
	<path fill="none" stroke="#B74949" stroke-width="8.9214" stroke-miterlimit="10" d="M428.85,224.34
		c0,112.153-90.905,203.059-203.048,203.059c-112.153,0-203.06-90.905-203.06-203.059c0-112.144,90.907-203.054,203.06-203.054
		C337.944,21.286,428.85,112.196,428.85,224.34z"/>
	<path fill="none" stroke="#B74949" stroke-width="4.4607" stroke-miterlimit="10" d="M413.162,224.34
		c0,103.48-83.887,187.366-187.36,187.366c-103.485,0-187.377-83.886-187.377-187.366S122.316,36.974,225.802,36.974
		C329.275,36.974,413.162,120.859,413.162,224.34z"/>
	<g>
		<path fill="#B74949" d="M98.424,188.383c0.41,1.464,0.561,4.251-0.1,7.664c-1.539,7.911-7.684,12.892-16.877,11.111
			c-8.778-1.699-13.58-8.804-11.891-17.502c0.674-3.492,1.848-5.551,2.532-6.413l2.793,1.442c-0.939,1.244-1.818,3.103-2.258,5.436
			c-1.279,6.575,2.073,11.756,9.442,13.185c6.865,1.332,12.046-1.769,13.359-8.593c0.43-2.209,0.405-4.547-0.015-6.136
			L98.424,188.383z"/>
		<path fill="#B74949" d="M87.412,145.001l24.932,13.939l-1.804,3.222l-24.927-13.949L87.412,145.001z"/>
		<path fill="#B74949" d="M130.17,134.279l-19.142-21.194l2.988-2.697l16.47,4.596c3.82,1.06,7.056,2.184,10.021,3.442l0.038-0.086
			c-2.805-2.606-5.195-5.124-8.179-8.417l-8.004-8.873l2.578-2.328l19.137,21.188l-2.77,2.503l-16.449-4.677
			c-3.594-1.023-7.202-2.166-10.34-3.502l-0.065,0.12c2.573,2.528,4.933,5.021,8.11,8.543l8.184,9.054L130.17,134.279z"/>
		<path fill="#B74949" d="M190.381,96.838c-1.028,1.104-3.346,2.678-6.605,3.877c-7.551,2.783-14.997,0.108-18.223-8.676
			c-3.101-8.39,0.5-16.162,8.803-19.227c3.343-1.225,5.71-1.294,6.8-1.145l0.204,3.128c-1.549-0.153-3.586,0.055-5.814,0.876
			c-6.275,2.316-8.968,7.862-6.38,14.896c2.413,6.565,7.739,9.383,14.263,6.98c2.1-0.778,4.088-2.004,5.231-3.188L190.381,96.838z"
			/>
		<path fill="#B74949" d="M243.492,79.316c-0.311,9.827-6.445,14.844-13.729,14.624c-7.535-0.24-12.65-6.248-12.381-14.889
			c0.288-9.063,6.105-14.818,13.724-14.574C238.906,64.723,243.757,70.853,243.492,79.316z M221.325,79.092
			c-0.187,6.1,2.938,11.666,8.747,11.846c5.836,0.18,9.312-5.091,9.514-11.571c0.18-5.676-2.6-11.695-8.739-11.888
			C224.746,67.285,221.52,72.821,221.325,79.092z"/>
	</g>
	<g>
		<path fill="#B74949" d="M346.113,172.645l12.971-5.44l-1.939-4.617l1.619-0.679l4.646,11.066l-1.619,0.674l-1.949-4.631
			l-12.964,5.445L346.113,172.645z"/>
		<path fill="#B74949" d="M355.552,206.086l15.722-1.612l1.049,10.308l-1.738,0.18l-0.859-8.354l-5.066,0.524l0.835,8.179
			l-1.743,0.175l-0.84-8.174l-5.421,0.55l0.854,8.349l-1.748,0.175L355.552,206.086z"/>
		<path fill="#B74949" d="M353.049,255.586l14.233-6.48l-12.356-2.558l0.4-1.934l15.498,3.218l-0.415,1.968l-13.959,6.415
			l12.116,2.514l-0.405,1.928l-15.498-3.212L353.049,255.586z"/>
		<path fill="#B74949" d="M342.316,284.294l13.76,7.764l-5.086,9.023l-1.524-0.864l4.122-7.305l-4.438-2.503l-4.037,7.159
			l-1.527-0.859l4.035-7.164l-4.746-2.673l-4.122,7.299l-1.527-0.859L342.316,284.294z"/>
		<path fill="#B74949" d="M319.904,315.579l10.815,11.571l-3.957,3.702c-3.593,3.353-8.283,3.028-11.347-0.255
			c-3.081-3.287-3.057-7.959,0.526-11.316L319.904,315.579z M316.906,329.209c2.338,2.498,5.795,3.038,8.652,0.359l2.52-2.348
			l-8.414-9.003l-2.52,2.348C314.338,323.188,314.588,326.73,316.906,329.209z"/>
		<path fill="#B74949" d="M290.467,347.455c1.928,4.247,0.52,8.748-3.748,10.691c-4.256,1.934-8.604,0.061-10.531-4.187
			c-1.939-4.252-0.505-8.759,3.746-10.696C284.201,341.319,288.527,343.203,290.467,347.455z M278.035,353.115
			c1.539,3.357,4.736,4.896,7.943,3.433c3.248-1.469,4.163-4.886,2.624-8.249c-1.515-3.347-4.712-4.916-7.943-3.437
			C277.445,346.326,276.501,349.769,278.035,353.115z"/>
		<path fill="#B74949" d="M236.537,354.884l4.697,5.811l3.137-0.345l-0.694-6.255l1.959-0.215l1.738,15.733l-6.319,0.699
			c-2.879,0.311-5.127-1.299-5.452-4.197c-0.313-2.833,1.444-4.601,3.573-5.03l-4.957-5.946L236.537,354.884z M237.627,365.885
			c0.199,1.77,1.609,2.859,3.472,2.653l4.122-0.459l-0.66-6.016l-4.125,0.46C238.562,362.738,237.438,364.117,237.627,365.885z"/>
		<path fill="#B74949" d="M206.121,353.885l-2.951,15.544l-10.168-1.935l0.323-1.724l8.249,1.559l0.949-5.006l-8.085-1.528
			l0.327-1.729l8.079,1.543l1.024-5.365l-8.249-1.563l0.33-1.725L206.121,353.885z"/>
		<path fill="#B74949" d="M169.09,345.007l-1.722,0.789c-0.387-1.523-1.385-3.282-3.364-4.321c-2.488-1.314-3.993-0.39-4.557,0.675
			c-1.908,3.606,7.438,5.979,4.807,10.977c-1.221,2.303-4.107,2.798-6.855,1.344c-2.139-1.124-3.418-2.713-3.942-4.566l1.724-0.725
			c0.435,1.703,1.639,3.003,3.168,3.812c1.673,0.879,3.348,0.604,4.042-0.71c1.658-3.147-7.579-5.706-4.83-10.937
			c1.07-2.033,3.555-3.372,7.333-1.395C167.32,341.234,168.619,343.104,169.09,345.007z"/>
	</g>
</g>
</svg>
